<?xml version="1.0" standalone="no"?>
<!DOCTYPE svg PUBLIC "-//W3C//DTD SVG 20010904//EN"
 "http://www.w3.org/TR/2001/REC-SVG-20010904/DTD/svg10.dtd">
<svg version="1.0" xmlns="http://www.w3.org/2000/svg"
 width="1279.000000pt" height="1280.000000pt" viewBox="0 0 1279.000000 1280.000000"
 preserveAspectRatio="xMidYMid meet">
<g transform="translate(0.000000,1280.000000) scale(0.100000,-0.100000)"
fill="#000000" stroke="none">
<path d="M6319 12796 c-3 -4 -33 -13 -65 -21 -32 -9 -93 -32 -134 -51 -73 -35
-105 -66 -1280 -1240 -663 -662 -1211 -1204 -1217 -1204 -9 0 -13 159 -15 678
-3 668 -3 678 -25 735 -46 121 -139 209 -262 248 -60 18 -98 19 -806 19 -712
0 -746 -1 -806 -20 -123 -38 -212 -120 -261 -240 l-23 -55 -3 -1790 -2 -1790
-639 -640 c-351 -352 -652 -661 -670 -687 -42 -63 -67 -123 -91 -220 -26 -103
-25 -128 5 -242 39 -152 98 -250 207 -342 115 -97 246 -139 413 -131 209 9
281 51 556 323 107 107 200 194 207 194 9 0 12 -690 14 -2997 l3 -2998 22 -55
c50 -123 137 -200 273 -244 l79 -26 4598 0 4598 1 75 24 c137 46 222 122 272
245 l23 55 3 2998 c2 2307 5 2997 14 2997 7 0 100 -87 207 -194 275 -272 347
-314 556 -323 167 -8 298 34 413 131 109 92 168 190 207 342 30 114 31 139 5
242 -26 102 -51 163 -97 227 -41 56 -5796 5829 -5887 5904 -69 57 -161 105
-249 128 -64 17 -208 29 -218 19z"/>
</g>
</svg>
