<?xml version="1.0" encoding="utf-8"?>
<!-- Svg Vector Icons : http://www.onlinewebfonts.com/icon -->
<!DOCTYPE svg PUBLIC "-//W3C//DTD SVG 1.1//EN" "http://www.w3.org/Graphics/SVG/1.1/DTD/svg11.dtd">
<svg version="1.1" xmlns="http://www.w3.org/2000/svg" xmlns:xlink="http://www.w3.org/1999/xlink" x="0px" y="0px" viewBox="0 0 1000 1000" enable-background="new 0 0 1000 1000" xml:space="preserve">
<metadata> Svg Vector Icons : http://www.onlinewebfonts.com/icon </metadata>
<g><g transform="translate(0.000000,511.000000) scale(0.100000,-0.100000)"><path d="M1840,4360.2c-69.4-38.3-124.4-157.9-100.5-222.5c7.2-21.5,35.9-64.6,62.2-93.3l47.8-55H5000h3150.5l47.8,55c93.3,98.1,74.1,256-40.7,315.8C8054.8,4412.9,1938.1,4412.9,1840,4360.2z"/><path d="M1038.6,3549.3c-162.7-71.8-157.9-296.6,4.8-363.6c119.6-50.2,7793.6-50.2,7913.2,0c167.5,69.4,167.5,294.2,0,363.6C8839.4,3597.1,1151,3597.1,1038.6,3549.3z"/><path d="M167.9,2697.7c-26.3-26.3-52.6-71.8-59.8-100.5c-7.2-31.1-9.6-1542.9-7.2-3361l7.2-3305.9l55-55l55-55H5000h4781.9l55,55l55,55l7.2,3305.9c2.4,1818,0,3329.9-7.2,3361c-7.2,28.7-33.5,74.2-59.8,100.5c-47.8,47.8-100.5,47.8-4832.1,47.8C268.3,2745.5,215.7,2745.5,167.9,2697.7z M9492.4-715.9l-7.2-3057.2H5000H514.7l-7.2,3057.2l-4.8,3054.8H5000h4497.2L9492.4-715.9z"/><path d="M3842.2,494.5l-62.2-74.2V-701.5c0-1184.1,4.8-1234.4,107.6-1275c122-45.4,215.3-7.2,1284.6,526.3c595.7,296.6,1119.5,566.9,1162.6,598c90.9,71.8,102.9,174.6,28.7,248.8c-26.3,26.3-555,301.4-1174.5,610C4390,406,4043.1,568.7,3985.7,568.7C3923.5,568.7,3887.7,549.6,3842.2,494.5z"/></g></g>
</svg>